<svg width="18" height="18" viewBox="0 0 18 18" fill="none" xmlns="http://www.w3.org/2000/svg">
<path d="M2.96096 9.9885C2.89381 10.1718 2.75784 10.3217 2.58192 10.4064C2.406 10.491 2.20401 10.5037 2.01887 10.4418C1.83372 10.3799 1.68001 10.2483 1.5904 10.0748C1.50079 9.90138 1.48233 9.69983 1.53896 9.513C1.52396 9.558 1.53896 9.5115 1.53896 9.5115C1.56563 9.42891 1.59668 9.3478 1.63196 9.2685C1.69196 9.126 1.78046 8.9295 1.90196 8.697C2.14946 8.232 2.53496 7.6125 3.10346 6.993C4.25096 5.7405 6.13046 4.5 8.99996 4.5C11.8695 4.5 13.749 5.7405 14.8965 6.993C15.509 7.66496 16.0057 8.43391 16.3665 9.2685L16.4355 9.438C16.44 9.45 16.455 9.528 16.47 9.603L16.5 9.75C16.5 9.75 16.626 10.2495 15.987 10.461C15.7988 10.5238 15.5934 10.5096 15.4157 10.4213C15.238 10.333 15.1025 10.1779 15.039 9.99V9.9855L15.03 9.9615C14.9546 9.76881 14.8685 9.58051 14.772 9.3975C14.5052 8.89428 14.1756 8.42703 13.791 8.007C12.876 7.0095 11.3805 6 8.99996 6C6.61946 6 5.12396 7.0095 4.20896 8.007C3.71357 8.5501 3.31071 9.17086 3.01646 9.8445C3.00072 9.88321 2.98572 9.92222 2.97146 9.9615L2.96096 9.9885V9.9885ZM5.99996 10.5C5.99996 9.70435 6.31603 8.94129 6.87864 8.37868C7.44125 7.81607 8.20431 7.5 8.99996 7.5C9.79561 7.5 10.5587 7.81607 11.1213 8.37868C11.6839 8.94129 12 9.70435 12 10.5C12 11.2956 11.6839 12.0587 11.1213 12.6213C10.5587 13.1839 9.79561 13.5 8.99996 13.5C8.20431 13.5 7.44125 13.1839 6.87864 12.6213C6.31603 12.0587 5.99996 11.2956 5.99996 10.5V10.5Z" fill="#775CBB" fill-opacity="0.54"/>
</svg>
